<mxfile host="Electron" agent="Mozilla/5.0 (X11; Linux x86_64) AppleWebKit/537.36 (KHTML, like Gecko) draw.io/26.0.4 Chrome/128.0.6613.186 Electron/32.2.5 Safari/537.36" version="26.0.4">
  <diagram name="Page-1" id="lvJhIlfjL9-gSGtxwmXL">
    <mxGraphModel dx="1114" dy="1027" grid="1" gridSize="10" guides="1" tooltips="1" connect="1" arrows="1" fold="1" page="1" pageScale="1" pageWidth="850" pageHeight="1100" math="0" shadow="0">
      <root>
        <mxCell id="0" />
        <mxCell id="1" parent="0" />
        <mxCell id="XK887LrzJykLu7SdIuaZ-1" value="Corporate data center" style="points=[[0,0],[0.25,0],[0.5,0],[0.75,0],[1,0],[1,0.25],[1,0.5],[1,0.75],[1,1],[0.75,1],[0.5,1],[0.25,1],[0,1],[0,0.75],[0,0.5],[0,0.25]];outlineConnect=0;gradientColor=none;html=1;whiteSpace=wrap;fontSize=12;fontStyle=0;container=1;pointerEvents=0;collapsible=0;recursiveResize=0;shape=mxgraph.aws4.group;grIcon=mxgraph.aws4.group_corporate_data_center;strokeColor=#7D8998;fillColor=none;verticalAlign=top;align=left;spacingLeft=30;fontColor=#5A6C86;dashed=0;" vertex="1" parent="1">
          <mxGeometry x="220" y="340" width="320" height="170" as="geometry" />
        </mxCell>
        <mxCell id="XK887LrzJykLu7SdIuaZ-10" value="Amazon FSx&lt;div&gt;File Gateway&lt;/div&gt;" style="sketch=0;outlineConnect=0;fontColor=#232F3E;gradientColor=none;fillColor=#7AA116;strokeColor=none;dashed=0;verticalLabelPosition=bottom;verticalAlign=top;align=center;html=1;fontSize=12;fontStyle=0;aspect=fixed;pointerEvents=1;shape=mxgraph.aws4.fsx_file_gateway;" vertex="1" parent="XK887LrzJykLu7SdIuaZ-1">
          <mxGeometry x="220" y="46" width="75" height="78" as="geometry" />
        </mxCell>
        <mxCell id="XK887LrzJykLu7SdIuaZ-3" value="&amp;nbsp;NFS or SMB&amp;nbsp;" style="edgeStyle=orthogonalEdgeStyle;rounded=0;orthogonalLoop=1;jettySize=auto;html=1;" edge="1" parent="1" source="XK887LrzJykLu7SdIuaZ-4" target="XK887LrzJykLu7SdIuaZ-10">
          <mxGeometry relative="1" as="geometry">
            <mxPoint x="441.7682954545455" y="425" as="targetPoint" />
          </mxGeometry>
        </mxCell>
        <mxCell id="XK887LrzJykLu7SdIuaZ-4" value="Application&lt;div&gt;Server&lt;/div&gt;" style="sketch=0;outlineConnect=0;fontColor=#232F3E;gradientColor=none;fillColor=#232F3D;strokeColor=none;dashed=0;verticalLabelPosition=bottom;verticalAlign=top;align=center;html=1;fontSize=12;fontStyle=0;aspect=fixed;pointerEvents=1;shape=mxgraph.aws4.traditional_server;" vertex="1" parent="1">
          <mxGeometry x="260" y="386" width="45" height="78" as="geometry" />
        </mxCell>
        <mxCell id="XK887LrzJykLu7SdIuaZ-5" value="AWS Cloud" style="points=[[0,0],[0.25,0],[0.5,0],[0.75,0],[1,0],[1,0.25],[1,0.5],[1,0.75],[1,1],[0.75,1],[0.5,1],[0.25,1],[0,1],[0,0.75],[0,0.5],[0,0.25]];outlineConnect=0;gradientColor=none;html=1;whiteSpace=wrap;fontSize=12;fontStyle=0;container=1;pointerEvents=0;collapsible=0;recursiveResize=0;shape=mxgraph.aws4.group;grIcon=mxgraph.aws4.group_aws_cloud_alt;strokeColor=#232F3E;fillColor=none;verticalAlign=top;align=left;spacingLeft=30;fontColor=#232F3E;dashed=0;" vertex="1" parent="1">
          <mxGeometry x="600" y="340" width="390" height="170" as="geometry" />
        </mxCell>
        <mxCell id="XK887LrzJykLu7SdIuaZ-12" value="Amazon FSx&lt;div&gt;for &lt;b&gt;Windows File Server&lt;/b&gt;&lt;/div&gt;" style="sketch=0;points=[[0,0,0],[0.25,0,0],[0.5,0,0],[0.75,0,0],[1,0,0],[0,1,0],[0.25,1,0],[0.5,1,0],[0.75,1,0],[1,1,0],[0,0.25,0],[0,0.5,0],[0,0.75,0],[1,0.25,0],[1,0.5,0],[1,0.75,0]];outlineConnect=0;fontColor=#232F3E;fillColor=#7AA116;strokeColor=#ffffff;dashed=0;verticalLabelPosition=bottom;verticalAlign=top;align=center;html=1;fontSize=12;fontStyle=0;aspect=fixed;shape=mxgraph.aws4.resourceIcon;resIcon=mxgraph.aws4.fsx_for_windows_file_server;" vertex="1" parent="XK887LrzJykLu7SdIuaZ-5">
          <mxGeometry x="50" y="46" width="78" height="78" as="geometry" />
        </mxCell>
        <mxCell id="XK887LrzJykLu7SdIuaZ-13" value="" style="sketch=0;outlineConnect=0;fontColor=#232F3E;gradientColor=none;fillColor=#7AA116;strokeColor=none;dashed=0;verticalLabelPosition=bottom;verticalAlign=top;align=center;html=1;fontSize=12;fontStyle=0;aspect=fixed;pointerEvents=1;shape=mxgraph.aws4.file_system;" vertex="1" parent="XK887LrzJykLu7SdIuaZ-5">
          <mxGeometry x="220" y="20" width="53.42" height="50" as="geometry" />
        </mxCell>
        <mxCell id="XK887LrzJykLu7SdIuaZ-14" value="" style="sketch=0;outlineConnect=0;fontColor=#232F3E;gradientColor=none;fillColor=#7AA116;strokeColor=none;dashed=0;verticalLabelPosition=bottom;verticalAlign=top;align=center;html=1;fontSize=12;fontStyle=0;aspect=fixed;pointerEvents=1;shape=mxgraph.aws4.file_system;" vertex="1" parent="XK887LrzJykLu7SdIuaZ-5">
          <mxGeometry x="290" y="20" width="53.42" height="50" as="geometry" />
        </mxCell>
        <mxCell id="XK887LrzJykLu7SdIuaZ-15" value="" style="sketch=0;outlineConnect=0;fontColor=#232F3E;gradientColor=none;fillColor=#7AA116;strokeColor=none;dashed=0;verticalLabelPosition=bottom;verticalAlign=top;align=center;html=1;fontSize=12;fontStyle=0;aspect=fixed;pointerEvents=1;shape=mxgraph.aws4.file_system;" vertex="1" parent="XK887LrzJykLu7SdIuaZ-5">
          <mxGeometry x="220" y="80" width="53.42" height="50" as="geometry" />
        </mxCell>
        <mxCell id="XK887LrzJykLu7SdIuaZ-16" value="" style="sketch=0;outlineConnect=0;fontColor=#232F3E;gradientColor=none;fillColor=#7AA116;strokeColor=none;dashed=0;verticalLabelPosition=bottom;verticalAlign=top;align=center;html=1;fontSize=12;fontStyle=0;aspect=fixed;pointerEvents=1;shape=mxgraph.aws4.file_system;" vertex="1" parent="XK887LrzJykLu7SdIuaZ-5">
          <mxGeometry x="290" y="80" width="53.42" height="50" as="geometry" />
        </mxCell>
        <mxCell id="XK887LrzJykLu7SdIuaZ-17" value="File Systems" style="text;html=1;align=center;verticalAlign=middle;resizable=0;points=[];autosize=1;strokeColor=none;fillColor=none;fontSize=14;" vertex="1" parent="XK887LrzJykLu7SdIuaZ-5">
          <mxGeometry x="235" y="130" width="100" height="30" as="geometry" />
        </mxCell>
        <mxCell id="XK887LrzJykLu7SdIuaZ-9" style="edgeStyle=orthogonalEdgeStyle;rounded=0;orthogonalLoop=1;jettySize=auto;html=1;startArrow=classic;startFill=1;" edge="1" parent="1" source="XK887LrzJykLu7SdIuaZ-10" target="XK887LrzJykLu7SdIuaZ-5">
          <mxGeometry relative="1" as="geometry">
            <mxPoint x="516.2317045454547" y="425" as="sourcePoint" />
          </mxGeometry>
        </mxCell>
      </root>
    </mxGraphModel>
  </diagram>
</mxfile>
